PathFileType	4	(X/Y/Z)	54_2_rein_94_p1_0-1516_filt_butterworth.trc
DataRate	CameraRate	NumFrames	NumMarkers	Units	OrigDataRate	OrigDataStartFrame	OrigNumFrames
60.0	60.0	6	27	m	60.0	1137	1516
Frame#	Time	RHip			RKnee			RAnkle			RBigToe			RSmallToe			RHeel			LHip			LKnee			LAnkle			LBigToe			LSmallToe			LHeel			Neck			Head			Nose			RShoulder			RElbow			RWrist			RThumb			RIndex			RPinky			LShoulder			LElbow			LWrist			LThumb			LIndex			LPinky			
		X1	Y1	Z1	X2	Y2	Z2	X3	Y3	Z3	X4	Y4	Z4	X5	Y5	Z5	X6	Y6	Z6	X7	Y7	Z7	X8	Y8	Z8	X9	Y9	Z9	X10	Y10	Z10	X11	Y11	Z11	X12	Y12	Z12	X13	Y13	Z13	X14	Y14	Z14	X15	Y15	Z15	X16	Y16	Z16	X17	Y17	Z17	X18	Y18	Z18	X19	Y19	Z19	X20	Y20	Z20	X21	Y21	Z21	X22	Y22	Z22	X23	Y23	Z23	X24	Y24	Z24	X25	Y25	Z25	X26	Y26	Z26	X27	Y27	Z27	
1137	18.95	0.28430572886556726	1.0804107151301772	0.4534084577946963	0.2695762564684864	0.6047821817731829	0.48769191365492154	0.27221374369881535	0.12620117255417435	0.5462000549934103	0.21944753401274336	0.09949617505663219	0.3596567095215218	0.27971121160142015	0.07581784590240216	0.4005636266274123	0.25675941154745013	0.04717638416278362	0.6395912637125327	0.08041516007565931	1.0974962066613865	0.4822187749992234	0.08455125427157596	0.5982691298316236	0.511283474286989	0.06663508529283887	0.15935834917715402	0.556938933022399	0.06412936041884894	0.0979796905377578	0.3712928215969925	0.014625733714705377	0.08773928540461833	0.420459982451664	0.08461177685721469	0.09948749354329899	0.6058039621070966	0.2311467994477982	1.6485236109239607	0.43006113284431197	0.31375926319413816	1.8687633307574034	0.4064527641207771	0.2719707777687343	1.7765741514643947	0.32388802160071034	0.37458111586298076	1.5352540470392324	0.4249780254680649	0.4570725194671649	1.2968792857979095	0.3730351627240427	0.40753572093583246	1.4685253797415425	0.19330186439580013	0.3679947675784636	1.5917820416474036	0.16151172279686718	0.3807730954689486	1.6158823739127275	0.0932017550724357	0.41021771469827956	1.5650996348974935	0.07516354133661098	0.05426338852937597	1.601529074937539	0.4779828883888399	-0.14497634581856989	1.407522492138676	0.48559337077552905	-0.12233980772091137	1.5850935289937518	0.2984954848319149	-0.07318148362124356	1.6665082474867439	0.21734597537557632	-0.09411734473040775	1.689617809582857	0.2594775316497301	-0.15555895779557816	1.6761310420633622	0.2665091197909253	
1138	18.966666666666665	0.2841706007345752	1.0797862334580048	0.4546053243534991	0.26885760371303047	0.6054834636415334	0.4865565608162392	0.2715872559819847	0.12587599145446127	0.5467311963863405	0.21993443045461836	0.09970846328441407	0.35935559064207273	0.2796111647491689	0.07680149526849986	0.4004390773345303	0.25600158802605	0.047264968232987634	0.6404514033669021	0.08005550157076616	1.0973302139720793	0.48270577104612766	0.08383083721315646	0.5987558070328521	0.5098436666010093	0.06658925064355754	0.15974895112025203	0.5571091531389396	0.06422056268557128	0.09753538103078811	0.37184963026775625	0.014450455831862656	0.08706757005421538	0.4205727365661541	0.08444284306671601	0.09851711144292971	0.6079244857052081	0.2304718150105025	1.6492368970711144	0.43094082227923747	0.3127991846620426	1.8688134520535684	0.4087817619637054	0.27207744624936303	1.7756716571938833	0.32354630372325266	0.37362201545868534	1.535183199313491	0.42897495482655357	0.456104045650384	1.2965817562936799	0.37826424047131446	0.40776521367009805	1.466499744202105	0.1964714728097625	0.3697204249543734	1.5912051075180387	0.1688032451999361	0.38258744029134484	1.6155707114303521	0.09511750151151059	0.4117986907395672	1.5635000508026926	0.07690730617036434	0.053502863314239806	1.6024060224600318	0.47534510537721275	-0.14529051007143878	1.4068305557633574	0.48437185399787575	-0.12202857038796949	1.5854593941071669	0.2966651880751162	-0.07378453932443998	1.6661236742720469	0.21444856889189895	-0.09255940702197576	1.689093391840383	0.2539041950858328	-0.15464552079713653	1.6750133117028618	0.26027308352303835	
1139	18.98333333333333	0.28417921392888046	1.0791317900125308	0.45572435790511945	0.26806663890395327	0.6063069647144261	0.4852245305404157	0.27098434982966213	0.12565066201628508	0.5470231303905273	0.22021380062451235	0.09995668347905526	0.3584533740963069	0.27952174431817206	0.07755119884485884	0.4003925147621265	0.2552733304199454	0.04724966310963912	0.6414718807154555	0.07964617250935056	1.0971587378393188	0.48332697112766676	0.0831521197109606	0.5992631343349025	0.5086256783653106	0.06654736209609068	0.16009616982151606	0.5572668920156406	0.06432064414454647	0.09714728191818633	0.37276282236125313	0.014218520780299228	0.08620153925028039	0.4207292972410754	0.0844434423135273	0.09755361509287667	0.6097810211193377	0.22996407804001487	1.6499317759992747	0.43320697431192784	0.31158916218852734	1.8687576322287602	0.4112103368108927	0.27215624760713	1.774611809750298	0.32327175874957775	0.3726339210691283	1.535492033992627	0.4331449053635163	0.45541218919282445	1.2959284493939947	0.383323449124474	0.40808508084239664	1.4642444424812193	0.20052192235444924	0.37133041235541897	1.5889192399870962	0.17681602758235732	0.38564224816411413	1.613409263664218	0.09883373327149238	0.4147331200224836	1.5617682190375692	0.0807634413653279	0.05261852463539311	1.603193992339937	0.4721378881190943	-0.14578842388993732	1.405806093546086	0.48255045606873415	-0.12183962429003624	1.5857475853962868	0.29436522743213916	-0.07443181486048184	1.66561094467382	0.21135199767863577	-0.09056286644367179	1.6877773376911427	0.24662240541225186	-0.15321530301824343	1.673064759115313	0.25578417722066304	
1140	19.0	0.28422348558403393	1.0784890831428018	0.4565935110711355	0.2672369156958554	0.6071363188921862	0.48381165309186264	0.270425473600708	0.12554949411364852	0.5470334367845825	0.22019910158029166	0.10022552821257932	0.357072487629381	0.2794268930128704	0.07788052853853437	0.40054951274609346	0.25465614173634815	0.047030969264264935	0.6427234449133861	0.07916485031676283	1.0969085251226534	0.484050945323832	0.0825722426818901	0.5996615319220445	0.5077419065278179	0.0665122221625938	0.16037614591486118	0.5573979196599851	0.06437164837713728	0.0969440703831396	0.3736740627179286	0.013965379978662686	0.08525960786914263	0.4209036681781492	0.08455213546340794	0.09670550748862385	0.6113043641238738	0.22948855125408987	1.6505195910028332	0.43619961687483355	0.31011657827066347	1.8686671525050393	0.41333545404178723	0.272098107441886	1.773525209737993	0.3234885115246654	0.3714669809034432	1.5360499923778796	0.43761589232618114	0.45511142521622927	1.2952329400480769	0.3880927752021289	0.4087357865071951	1.4617536377075866	0.204994677411592	0.37294047545824016	1.5847901535516882	0.18362665821839058	0.38981377819416607	1.6090837004806287	0.10469165063841172	0.41924716963422426	1.559499442850861	0.08756133000346893	0.051653493147384925	1.6037586816995353	0.468474149581945	-0.1464230977560251	1.4043793298706284	0.48041663727399864	-0.12186695668692889	1.5854617042504515	0.29194568660079234	-0.07495563357177154	1.664669603403171	0.20818038916586712	-0.08831094318202076	1.6857102546244471	0.23788247322669126	-0.15115954273688492	1.669937390443759	0.25394368119872474	
1141	19.016666666666666	0.28422366326042064	1.0779038428495609	0.4571527870440939	0.2663893252486715	0.6078611865662444	0.48241097379123	0.2699338149063745	0.1255530271296195	0.54679300688721	0.21989301374105558	0.10049416817859798	0.35549274082952015	0.2793190653082974	0.07775273083011225	0.4009454084132696	0.2541103059612374	0.04669322124157131	0.6440399309673207	0.07858822212944248	1.0965115312128282	0.4848588830351347	0.08211649964027629	0.5998352359897092	0.5072272254752554	0.06648178669761204	0.1606162699723249	0.5575068531797072	0.06435212590287614	0.09693144218273353	0.37427814204471976	0.013727481048968402	0.08434545347198102	0.42106573434205613	0.08468926297589294	0.09598534712031033	0.6125108495965764	0.22887859553300638	1.650928978711222	0.4391326877982873	0.30845764071337095	1.8685562418435846	0.4148217703167259	0.271838035902752	1.772552217492832	0.32450228133929854	0.37017689286746114	1.536713843380717	0.44192225916342454	0.4551878323525354	1.2949321825798974	0.3923343768861971	0.4098649847234923	1.4590894606537541	0.2092084281073619	0.37460707005724136	1.5793458686223205	0.18679925949489423	0.3946772127967876	1.6028804651848088	0.11226670045356105	0.42463696423611685	1.5559273952288777	0.09736302326567434	0.050735170766123605	1.6039114375788313	0.4648676188173164	-0.1470434392128459	1.4025760147296096	0.4780854221642425	-0.12201354061617406	1.5842733777539102	0.2896866936762582	-0.07520671073078279	1.6629905773812352	0.20520855330349952	-0.0859327789821591	1.6831888263741301	0.22789614237778533	-0.14864385765131644	1.665887065377489	0.25468352953123813	
1142	19.03333333333333	0.28420454443325216	1.0774351446758335	0.4574521645480019	0.26554978069591817	0.608412488317197	0.48109370129317347	0.2695314997200659	0.12558452827714678	0.5464324414872003	0.21946473787196819	0.10074935188376735	0.35418097277797417	0.2792431357495298	0.07747426888493375	0.40128045294970804	0.25355170419863676	0.046405627943536865	0.645187891675021	0.07792268038177877	1.095986558008227	0.48573979763437003	0.0817925345927435	0.5997301966232081	0.507080449329686	0.06645090704920908	0.16086362725365727	0.5576084469093404	0.06427311401480548	0.09701547335713678	0.37446047287781936	0.01354106283647329	0.08354749079886667	0.421182522111691	0.08482029574868384	0.09533019741673501	0.6134552816599919	0.22797653159838388	1.6511240639742895	0.44124049655853265	0.30681685712075596	1.8684001584256893	0.41544073757172373	0.27141060991196275	1.7717931306864043	0.32630145875251315	0.3690718521316303	1.5373819908143245	0.4453941501402805	0.4556153200923835	1.2953071051985885	0.39595895397537906	0.4113901325960385	1.4564928751302155	0.2124637509400579	0.3763603177511802	1.573436149465158	0.18425176165144286	0.3997976012217195	1.5952575194320722	0.1204216236162194	0.42946459545570137	1.550284907882109	0.10877856501965236	0.04996238530865736	1.6035195924690133	0.46178002016239095	-0.14741711635198126	1.4005766993129187	0.4754575766928957	-0.12201711401095905	1.5820846880653532	0.28763658608431353	-0.07523098091892341	1.660486550224097	0.20306144210460292	-0.08368525361566387	1.6805110875786557	0.2176449348019483	-0.14595159095333954	1.661403002214639	0.25719617491380653	
